<svg xmlns="http://www.w3.org/2000/svg" width="32" height="32" viewBox="0 0 32 32" fill="none">
  <defs>
    <linearGradient id="popcornGradient" x1="0%" y1="0%" x2="100%" y2="100%">
      <stop offset="0%" style="stop-color:#FFD700;stop-opacity:1" />
      <stop offset="50%" style="stop-color:#FFA500;stop-opacity:1" />
      <stop offset="100%" style="stop-color:#FF6347;stop-opacity:1" />
    </linearGradient>
  </defs>
  <rect width="32" height="32" rx="6" fill="url(#popcornGradient)" />
  <g transform="translate(16, 16) scale(0.8) translate(-12, -12)">
    <path d="M18 8a2 2 0 0 0 0-4 2 2 0 0 0-4 0 2 2 0 0 0-4 0 2 2 0 0 0-4 0 2 2 0 0 0 0 4" stroke="#ffffff"
      stroke-width="2.2" fill="none" stroke-linecap="round" stroke-linejoin="round" />
    <path d="M10 22 9 8" stroke="#ffffff" stroke-width="2.2" fill="none" stroke-linecap="round"
      stroke-linejoin="round" />
    <path d="m14 22 1-14" stroke="#ffffff" stroke-width="2.2" fill="none" stroke-linecap="round"
      stroke-linejoin="round" />
    <path d="M20 8c.5 0 .9.4.8 1l-2.6 12c-.1.5-.7 1-1.2 1H7c-.6 0-1.1-.4-1.2-1L3.2 9c-.1-.6.3-1 .8-1Z" stroke="#ffffff"
      stroke-width="2.2" fill="none" stroke-linecap="round" stroke-linejoin="round" />
  </g>
</svg>